<mxfile host="app.diagrams.net" modified="2023-11-08T22:26:22.951Z" agent="Mozilla/5.0 (Macintosh; Intel Mac OS X 10_15_7) AppleWebKit/537.36 (KHTML, like Gecko) Chrome/117.0.0.0 Safari/537.36 OPR/103.0.0.0" version="22.1.0" etag="bhe4DT1FoU7dE0v5bA2v" type="github">
  <diagram name="Page-1" id="yTEPhxUzbwehHL7zvYJ2">
    <mxGraphModel>
      <root>
        <mxCell id="0" />
        <mxCell id="1" parent="0" />
      </root>
    </mxGraphModel>
  </diagram>
</mxfile>
